<svg xmlns="http://www.w3.org/2000/svg" xmlns:xlink="http://www.w3.org/1999/xlink" version="1.1" id="Your_Icon" x="0px" y="0px" width="100px" height="100px" viewBox="0 0 100 100" enable-background="new 0 0 100 100" xml:space="preserve">
<path d="M27.695,19.5H4.107C1.842,19.5,0,21.341,0,23.607c0,2.261,1.841,4.102,4.107,4.102h23.588c2.269,0,4.106-1.841,4.106-4.102  C31.801,21.341,29.963,19.5,27.695,19.5z"/>
<path d="M27.695,58.803h-8.173c-2.265,0-4.107,1.842-4.107,4.106c0,2.261,1.842,4.103,4.107,4.103h8.173  c2.269,0,4.105-1.842,4.105-4.103C31.8,60.645,29.963,58.803,27.695,58.803z"/>
<path d="M27.695,39.151H11.114c-2.265,0-4.107,1.841-4.107,4.106c0,2.262,1.841,4.104,4.107,4.104h16.581  c2.269,0,4.105-1.842,4.105-4.104C31.8,40.992,29.963,39.151,27.695,39.151z"/>
<path d="M92.993,19.5H45.871c-3.87,0-7.007,3.137-7.007,7.007v33.498c0,3.87,3.137,7.007,7.007,7.007h12.088v10.686  c0,1.133,0.682,2.155,1.73,2.589c0.348,0.145,0.711,0.214,1.072,0.214c0.729,0,1.445-0.284,1.981-0.821L75.41,67.012h17.583  c3.87,0,7.007-3.137,7.007-7.007V26.507C100,22.637,96.863,19.5,92.993,19.5z"/>
</svg>